<?xml version="1.0" encoding="utf-8"?>
<!-- Generator: Adobe Illustrator 17.1.0, SVG Export Plug-In . SVG Version: 6.00 Build 0)  -->
<!DOCTYPE svg PUBLIC "-//W3C//DTD SVG 1.1//EN" "http://www.w3.org/Graphics/SVG/1.1/DTD/svg11.dtd">
<svg version="1.1" id="Layer_1" xmlns="http://www.w3.org/2000/svg" xmlns:xlink="http://www.w3.org/1999/xlink" x="0px" y="0px"
	 viewBox="0 0 144 144" enable-background="new 0 0 144 144" xml:space="preserve">
<g>
	<path fill="#ED4B24" d="M98.956,52.22c-1.058,1.072-2.004,2.047-2.968,3.002c-1.981,1.961-3.976,3.908-5.961,5.866
		c-5.268,5.198-10.533,10.4-15.8,15.599c-1.398,1.38-3.102,1.368-4.532-0.038c-2.094-2.06-4.181-4.127-6.27-6.192
		c-3.67-3.628-7.338-7.258-11.01-10.885c-2.302-2.274-4.609-4.543-6.913-6.815c-0.128-0.127-0.25-0.26-0.404-0.422
		c0.63-0.331,1.273-0.405,1.934-0.405c12.78,0.001,25.56,0.001,38.34,0.001c3.884,0,7.768-0.012,11.651,0.012
		C97.638,51.946,98.251,52.114,98.956,52.22z"/>
	<path fill="#ED4B24" d="M45.164,91.649c6.175-5.603,12.35-11.206,18.555-16.836c0.444,0.426,0.864,0.82,1.275,1.223
		c0.936,0.918,1.852,1.858,2.806,2.756c2.561,2.411,5.993,2.368,8.493-0.121c1.293-1.288,2.537-2.626,3.847-3.988
		c6.306,5.722,12.501,11.344,18.697,16.965c-0.001,0.056-0.002,0.113-0.003,0.169c-0.61,0.085-1.221,0.241-1.831,0.244
		c-4.781,0.02-9.562,0.011-14.343,0.011c-11.869,0-23.738,0.004-35.608-0.011c-0.628-0.001-1.256-0.155-1.883-0.238
		C45.167,91.765,45.166,91.707,45.164,91.649z"/>
	<path fill="#ED4B24" d="M101.109,54.414c0.098,0.629,0.28,1.257,0.281,1.886c0.018,10.455,0.018,20.909-0.001,31.364
		c-0.001,0.657-0.197,1.314-0.302,1.971c-0.058,0.002-0.116,0.005-0.175,0.007c-6.201-5.62-12.402-11.241-18.623-16.88
		c6.232-6.142,12.434-12.254,18.635-18.366C100.985,54.402,101.047,54.408,101.109,54.414z"/>
	<path fill="#ED4B24" d="M43.046,54.364c6.218,6.143,12.411,12.26,18.647,18.42C55.485,78.41,49.296,84.018,43,89.724
		c-0.142-0.573-0.276-1.052-0.374-1.539c-0.045-0.224-0.025-0.463-0.025-0.695c-0.001-10.323,0-20.645-0.002-30.968
		C42.6,55.789,42.653,55.069,43.046,54.364z"/>
</g>
</svg>
