<?xml version="1.0" encoding="utf-8"?>
<!-- Generator: Adobe Illustrator 20.1.0, SVG Export Plug-In . SVG Version: 6.00 Build 0)  -->
<svg version="1.1" id="Layer_1" xmlns="http://www.w3.org/2000/svg" xmlns:xlink="http://www.w3.org/1999/xlink" x="0px" y="0px"
	 viewBox="0 0 226 168" style="enable-background:new 0 0 226 168;" xml:space="preserve">
<style type="text/css">
	.st0{fill:#FFFFFF;}
</style>
<g>
	<g>
		<path class="st0" d="M8.5,118.5h16.3V15.2H8.5V6h43.1v9.3H35.4v45.2h72.5V15.2H91.6V6h43.1v9.3h-16.3v103.3h16.3v9.3H91.6v-9.3
			h16.3V69.9H35.4v48.7h16.3v9.3H8.5V118.5z"/>
	</g>
	<g>
		<path class="st0" d="M131.3,60.4h59.8V15.2h-16.3V6h43.1v9.3h-16.3v103.3h16.3v9.3h-43.1v-9.3h16.3V69.9h-59.8"/>
	</g>
</g>
<g>
	<path class="st0" d="M8.7,143.2c0-0.3,0.2-0.5,0.5-0.5h3.2c0.3,0,0.5,0.2,0.5,0.5v6.8h7.7v-6.8c0-0.3,0.2-0.5,0.5-0.5h3.2
		c0.3,0,0.5,0.2,0.5,0.5V161c0,0.3-0.2,0.5-0.5,0.5h-3.2c-0.3,0-0.5-0.2-0.5-0.5v-7h-7.7v7.1c0,0.3-0.2,0.5-0.5,0.5H9.2
		c-0.3,0-0.5-0.2-0.5-0.5V143.2z"/>
	<path class="st0" d="M40.4,142.5c5.4,0,9.7,4.3,9.7,9.7s-4.3,9.7-9.7,9.7s-9.7-4.3-9.7-9.7C30.8,146.8,35,142.5,40.4,142.5z
		 M40.4,157.5c3,0,5.4-2.4,5.4-5.3c0-3-2.4-5.4-5.4-5.4c-2.9,0-5.4,2.4-5.4,5.4C35.1,155.1,37.5,157.5,40.4,157.5z"/>
	<path class="st0" d="M56,143.2c0-0.3,0.2-0.5,0.5-0.5H63c3.3,0,6,2.7,6,5.9c0,3.3-2.7,6-6,6h-2.8v6.3c0,0.3-0.2,0.5-0.5,0.5h-3.2
		c-0.3,0-0.5-0.2-0.5-0.5V143.2z M62.8,150.8c1.2,0,2.1-0.9,2.1-2.1c0-1.1-1-2-2.1-2h-2.6v4.1H62.8z"/>
	<path class="st0" d="M74.5,143.2c0-0.3,0.2-0.5,0.5-0.5h6.5c3.3,0,6,2.7,6,5.9c0,3.3-2.7,6-6,6h-2.8v6.3c0,0.3-0.2,0.5-0.5,0.5H75
		c-0.3,0-0.5-0.2-0.5-0.5V143.2z M81.2,150.8c1.2,0,2.1-0.9,2.1-2.1c0-1.1-1-2-2.1-2h-2.6v4.1H81.2z"/>
	<path class="st0" d="M91.9,159l1.3-2.2c0.2-0.4,0.7-0.3,0.9-0.2c0.1,0.1,2,1.5,3.8,1.5c1.1,0,1.9-0.7,1.9-1.6c0-1.1-0.9-2-2.8-2.7
		c-2.3-0.9-5.2-2.7-5.2-5.9c0-2.7,2.1-5.3,6.2-5.3c2.8,0,4.9,1.4,5.8,2c0.3,0.2,0.3,0.7,0.2,0.9l-1.4,2.1c-0.2,0.3-0.7,0.5-0.9,0.4
		s-2.2-1.6-3.8-1.6c-1,0-1.7,0.6-1.7,1.4c0,1,0.8,1.7,2.9,2.6c2.1,0.8,5.4,2.5,5.4,6.1c0,2.8-2.4,5.6-6.3,5.6c-3.5,0-5.4-1.5-6-2.1
		C91.8,159.5,91.7,159.4,91.9,159z"/>
	<path class="st0" d="M119,143.2c0-0.3,0.2-0.5,0.5-0.5h3.2c0.3,0,0.5,0.2,0.5,0.5v6.8h7.7v-6.8c0-0.3,0.2-0.5,0.5-0.5h3.2
		c0.3,0,0.5,0.2,0.5,0.5V161c0,0.3-0.2,0.5-0.5,0.5h-3.2c-0.3,0-0.5-0.2-0.5-0.5v-7h-7.7v7.1c0,0.3-0.2,0.5-0.5,0.5h-3.2
		c-0.3,0-0.5-0.2-0.5-0.5V143.2z"/>
	<path class="st0" d="M150.7,142.5c5.4,0,9.7,4.3,9.7,9.7s-4.3,9.7-9.7,9.7s-9.7-4.3-9.7-9.7C141.1,146.8,145.4,142.5,150.7,142.5z
		 M150.7,157.5c3,0,5.4-2.4,5.4-5.3c0-3-2.4-5.4-5.4-5.4c-2.9,0-5.4,2.4-5.4,5.4C145.4,155.1,147.8,157.5,150.7,157.5z"/>
	<path class="st0" d="M166.1,143.2c0-0.3,0.2-0.5,0.5-0.5h3.3c0.3,0,0.5,0.2,0.5,0.5v10.9c0,1.9,1.4,3.4,3.3,3.4
		c1.9,0,3.4-1.5,3.4-3.4v-10.9c0-0.3,0.2-0.5,0.5-0.5h3.3c0.3,0,0.5,0.2,0.5,0.5v11.1c0,4.1-3.4,7.5-7.7,7.5c-4.2,0-7.6-3.4-7.6-7.5
		V143.2z"/>
	<path class="st0" d="M187.3,159l1.3-2.2c0.2-0.4,0.7-0.3,0.9-0.2c0.1,0.1,2,1.5,3.8,1.5c1.1,0,1.9-0.7,1.9-1.6c0-1.1-0.9-2-2.8-2.7
		c-2.3-0.9-5.2-2.7-5.2-5.9c0-2.7,2.1-5.3,6.2-5.3c2.8,0,4.9,1.4,5.8,2c0.3,0.2,0.3,0.7,0.2,0.9l-1.4,2.1c-0.2,0.3-0.7,0.5-0.9,0.4
		s-2.2-1.6-3.8-1.6c-1,0-1.7,0.6-1.7,1.4c0,1,0.8,1.7,2.9,2.6c2.1,0.8,5.4,2.5,5.4,6.1c0,2.8-2.4,5.6-6.3,5.6c-3.5,0-5.4-1.5-6-2.1
		C187.2,159.5,187.1,159.4,187.3,159z"/>
	<path class="st0" d="M205.8,143.2c0-0.3,0.2-0.5,0.5-0.5h11.1c0.3,0,0.5,0.2,0.5,0.5v2.9c0,0.3-0.2,0.5-0.5,0.5H210v3.3h6.1
		c0.3,0,0.5,0.2,0.5,0.5v2.9c0,0.3-0.2,0.5-0.5,0.5H210v3.6h7.4c0.3,0,0.5,0.2,0.5,0.5v2.9c0,0.3-0.2,0.5-0.5,0.5h-11.1
		c-0.3,0-0.5-0.2-0.5-0.5L205.8,143.2L205.8,143.2z"/>
</g>
</svg>
