<?xml version="1.0" encoding="utf-8"?>
<!-- Generator: Adobe Illustrator 17.1.0, SVG Export Plug-In . SVG Version: 6.00 Build 0)  -->
<!DOCTYPE svg PUBLIC "-//W3C//DTD SVG 1.1//EN" "http://www.w3.org/Graphics/SVG/1.1/DTD/svg11.dtd">
<svg version="1.1" id="Layer_1" xmlns="http://www.w3.org/2000/svg" xmlns:xlink="http://www.w3.org/1999/xlink" x="0px" y="0px"
	 viewBox="0 0 144 144" enable-background="new 0 0 144 144" xml:space="preserve">
<g>
	<path fill="#ED4B24" d="M48.307,40.673c3,5.322,5.964,10.581,8.926,15.835c-1.251,1.059-1.643,2.275-1.017,3.812
		c0.52,1.275,1.159,2.52,1.889,3.688c2.244,3.587,4.58,7.116,7.396,10.293c1.416,1.598,2.937,3.095,4.78,4.203
		c0.703,0.423,1.466,0.776,2.243,1.041c1.119,0.382,1.834,0.1,2.539-0.843c0.085-0.114,0.167-0.231,0.286-0.397
		c3.874,3.953,7.738,7.895,11.618,11.854c-0.986,1.185-2.158,2.09-3.509,2.736c-3.619,1.731-7.243,1.842-10.88-0.002
		c-2.99-1.516-5.681-3.462-8.241-5.6c-4.535-3.787-8.695-7.95-12.256-12.671c-4.346-5.762-7.695-12.051-9.593-19.049
		c-0.387-1.427-0.608-2.906-0.805-4.375c-0.23-1.72,0.149-3.352,0.993-4.87C44.012,43.926,45.995,42.174,48.307,40.673z"/>
	<path fill="#ED4B24" d="M51.028,39.059c1.292-0.343,2.505-0.662,3.716-0.987c0.541-0.145,0.969,0.044,1.275,0.472
		c0.256,0.357,0.479,0.744,0.672,1.14c1.723,3.542,3.436,7.089,5.149,10.635c0.136,0.282,0.274,0.567,0.373,0.864
		c0.32,0.954,0.086,1.65-0.785,2.157c-0.664,0.387-1.37,0.702-2.112,1.076C56.562,49.311,53.814,44.22,51.028,39.059z"/>
	<path fill="#ED4B24" d="M77.429,76.251c0.37-0.429,0.708-0.816,1.041-1.207c0.934-1.096,1.809-1.187,2.913-0.25
		c1.318,1.119,2.61,2.268,3.915,3.402c1.844,1.602,3.69,3.203,5.535,4.804c0.043,0.037,0.088,0.072,0.131,0.111
		c1.09,0.979,1.165,1.375,0.461,2.648c-0.456,0.824-0.935,1.636-1.406,2.452c-0.013,0.022-0.043,0.034-0.107,0.082
		C85.759,84.286,81.6,80.274,77.429,76.251z"/>
</g>
</svg>
